<?xml version="1.0" encoding="UTF-8" standalone="no"?>
<svg
   xmlns="http://www.w3.org/2000/svg"
   id="icon"
   version="1.1"
   viewBox="0 0 72 72"
   height="72"
   width="72">
  <g
     id="bubble"
     transform="matrix(0.55221859,0,0,0.55221859,-1.9501472,-0.50234932)">
    <path
       d="m 132.26414,65.20089 c 0,34.79394 -28.41372,58.26955 -63.188991,59.40923 -11.533306,0.37797 -25.678679,-2.14086 -33.215895,-5.32883 -7.537216,-3.18798 -29.0967131,9.55513 -29.0967131,9.55513 0,0 9.9082791,-23.07141 6.7203061,-30.608623 C 10.294873,90.690581 6.2641373,73.899375 6.2641373,65.20089 6.2641373,30.406951 34.470198,2.2008898 69.264137,2.2008896 104.05808,2.2008879 132.26414,30.406949 132.26414,65.20089 Z"
       style="fill:#ffffff;fill-opacity:1;stroke:#000000;stroke-width:2.065"
       id="path2" />
  </g>
  <g
     id="triangle"
     transform="matrix(0.55221859,0,0,0.55221859,-1.9501472,-0.50234932)">
    <g
       style="fill:#000000;fill-opacity:1;stroke:none;stroke-width:0.264583"
       transform="translate(-4.1577381,25.891369)"
       id="g8">
      <g
         transform="matrix(1.225231,0,0,1.2777869,-18.316145,-5.6927222)"
         id="g6">
        <path
           transform="matrix(0.98454615,-0.08674149,0.08708975,0.98849939,1.4650783,-13.047825)"
           id="triangle-path"
           style="fill:#ffd200;fill-opacity:1;stroke-width:0.264583"
           d="m 72.571425,10.016368 34.353185,73.90428 -81.179578,-7.20141 z" />
      </g>
    </g>
    <g
       id="marks">
      <path
         d="m 69.528068,40.741636 q 2.053978,12.203376 2.551912,16.422628 0.497933,4.154341 0.497933,8.957797 l 0.373451,6.750804 8.278151,-1.103497 q 0,-9.217443 0.311208,-17.071744 0.373451,-7.919212 1.307077,-15.643689 z m 1.05811,40.959203 q 0,-2.531551 1.680527,-4.154341 1.742768,-1.687701 4.419163,-1.687701 1.493802,0 3.112087,0.584205 0.7469,0.194734 1.43156,0.714027 2.053977,1.557878 2.053977,4.154341 0,2.401728 -1.929494,4.349075 -0.622417,0.584204 -1.369318,1.038585 -0.746901,0.38947 -1.43156,0.519293 -0.684659,0.194735 -1.307076,0.259646 -0.622418,0.06491 -1.05811,0.06491 -2.614153,0 -4.107954,-1.557878 -1.493802,-1.557878 -1.493802,-4.284164 z"
         style="fill:#000000;fill-opacity:1;stroke:none;stroke-width:0.331055"
         id="mark-right" />
      <path
         d="m 52.183163,40.741636 q 2.053978,12.203376 2.551912,16.422628 0.497933,4.154341 0.497933,8.957797 l 0.373451,6.750804 8.278151,-1.103497 q 0,-9.217443 0.311208,-17.071744 0.373451,-7.919212 1.307077,-15.643689 z m 1.05811,40.959203 q 0,-2.531551 1.680527,-4.154341 1.742768,-1.687701 4.419163,-1.687701 1.493802,0 3.112087,0.584205 0.7469,0.194734 1.43156,0.714027 2.053977,1.557878 2.053977,4.154341 0,2.401728 -1.929494,4.349075 -0.622417,0.584204 -1.369318,1.038585 -0.746901,0.38947 -1.43156,0.519293 -0.684659,0.194735 -1.307076,0.259646 -0.622418,0.06491 -1.05811,0.06491 -2.614153,0 -4.107954,-1.557878 -1.493802,-1.557878 -1.493802,-4.284164 z"
         style="fill:#000000;fill-opacity:1;stroke:none;stroke-width:0.331055"
         id="mark-left" />
    </g>
  </g>
</svg>
