<?xml version="1.0" standalone="no"?>
<!DOCTYPE svg PUBLIC "-//W3C//DTD SVG 20010904//EN"
 "http://www.w3.org/TR/2001/REC-SVG-20010904/DTD/svg10.dtd">
<svg version="1.0" xmlns="http://www.w3.org/2000/svg"
 width="700.000000pt" height="700.000000pt" viewBox="0 0 700.000000 700.000000"
 preserveAspectRatio="xMidYMid meet">
<metadata>
Created by potrace 1.14, written by Peter Selinger 2001-2017
</metadata>
<g transform="translate(0.000000,700.000000) scale(0.100000,-0.100000)"
fill="#000000" stroke="none">
<path d="M3397 6985 c-1 -1 -52 -5 -113 -9 -122 -7 -313 -31 -394 -50 -14 -3
-36 -8 -50 -10 -49 -8 -206 -47 -290 -72 -257 -77 -561 -210 -780 -342 -864
-521 -1447 -1364 -1626 -2352 -4 -19 -8 -43 -10 -54 -2 -10 -6 -44 -10 -75 -3
-31 -8 -65 -10 -76 -24 -128 -24 -591 1 -723 1 -9 6 -42 10 -72 4 -30 9 -64
11 -75 2 -11 6 -36 9 -55 11 -79 61 -322 96 -470 17 -69 32 -132 34 -140 1 -8
10 -42 19 -75 9 -33 18 -67 20 -75 17 -72 108 -356 126 -395 54 -116 64 -159
66 -295 3 -184 -19 -316 -103 -614 -73 -263 -192 -599 -307 -864 -20 -46 -36
-86 -36 -88 0 -2 18 7 40 21 22 14 42 25 45 25 3 0 31 16 61 35 30 19 56 35
59 35 2 0 28 14 57 31 195 116 610 304 838 379 184 61 291 83 405 84 89 0 134
-11 247 -58 50 -21 294 -93 378 -111 281 -61 486 -95 725 -120 241 -25 833
-25 907 0 7 2 42 6 78 9 54 5 293 43 365 60 204 45 418 108 583 172 651 251
1181 652 1556 1178 318 444 505 968 553 1546 13 154 6 559 -12 649 -2 13 -7
49 -11 80 -3 31 -8 63 -9 71 -2 8 -10 56 -20 105 -25 136 -92 389 -122 465 -4
8 -7 17 -7 20 -12 49 -107 273 -167 392 -80 162 -140 265 -236 406 -24 35 -43
65 -43 68 0 2 -7 12 -16 22 -8 9 -38 46 -65 82 -260 337 -594 634 -960 851
-93 56 -350 189 -363 189 -3 0 -35 14 -71 30 -139 64 -447 161 -590 186 -16 3
-43 9 -60 14 -16 5 -55 12 -85 15 -30 4 -57 8 -60 10 -3 2 -33 6 -65 10 -33 3
-71 8 -85 10 -73 12 -501 28 -513 20z"/>
</g>
</svg>
